HIERARCHY
ROOT mixamorig:Hips
{
	OFFSET 0.000000 201.639420 0.000000
	CHANNELS 6 Xposition Yposition Zposition Xrotation Yrotation Zrotation
	JOINT mixamorig:Spine
	{
		OFFSET 0.006200 19.524994 -2.481800
		CHANNELS 3 Xrotation Yrotation Zrotation
		JOINT mixamorig:Spine1
		{
			OFFSET -0.000900 22.835007 -2.825400
			CHANNELS 3 Xrotation Yrotation Zrotation
			JOINT mixamorig:Spine2
			{
				OFFSET -0.020600 26.552490 -3.193300
				CHANNELS 3 Xrotation Yrotation Zrotation
				JOINT mixamorig:Neck
				{
					OFFSET -0.060000 30.701813 1.352200
					CHANNELS 3 Xrotation Yrotation Zrotation
					JOINT mixamorig:Head
					{
						OFFSET -0.087200 22.547607 3.670900
						CHANNELS 3 Xrotation Yrotation Zrotation
						JOINT mixamorig:HeadTop_End
						{
							OFFSET -0.830600 40.355194 7.893500
							CHANNELS 3 Xrotation Yrotation Zrotation
							End Site
							{
								OFFSET 0.000000 30.592346 0.000000
							}
						}
						JOINT mixamorig:RightEye
						{
							OFFSET -6.302100 18.118591 16.197100
							CHANNELS 3 Xrotation Yrotation Zrotation
							End Site
							{
								OFFSET 0.000000 30.592346 0.000000
							}
						}
						JOINT mixamorig:LeftEye
						{
							OFFSET 6.741500 18.382690 16.401899
							CHANNELS 3 Xrotation Yrotation Zrotation
							End Site
							{
								OFFSET 0.000000 30.592346 0.000000
							}
						}
					}
				}
				JOINT mixamorig:LeftShoulder
				{
					OFFSET 11.924900 18.230499 1.425400
					CHANNELS 3 Xrotation Yrotation Zrotation
					JOINT mixamorig:LeftArm
					{
						OFFSET 25.435989 -0.697632 -5.229300
						CHANNELS 3 Xrotation Yrotation Zrotation
						JOINT mixamorig:LeftForeArm
						{
							OFFSET 54.684776 0.000000 0.000000
							CHANNELS 3 Xrotation Yrotation Zrotation
							JOINT mixamorig:LeftHand
							{
								OFFSET 55.098175 0.000000 0.000000
								CHANNELS 3 Xrotation Yrotation Zrotation
								JOINT mixamorig:LeftHandMiddle1
								{
									OFFSET 23.369751 0.000000 0.000000
									CHANNELS 3 Xrotation Yrotation Zrotation
									JOINT mixamorig:LeftHandMiddle2
									{
										OFFSET 6.378677 0.000000 0.000000
										CHANNELS 3 Xrotation Yrotation Zrotation
										JOINT mixamorig:LeftHandMiddle3
										{
											OFFSET 6.148331 0.000000 0.000000
											CHANNELS 3 Xrotation Yrotation Zrotation
											JOINT mixamorig:LeftHandMiddle4
											{
												OFFSET 6.582504 0.000000 0.000000
												CHANNELS 3 Xrotation Yrotation Zrotation
												End Site
												{
													OFFSET -1.168900 6.395691 1.028606
												}
											}
										}
									}
								}
								JOINT mixamorig:LeftHandThumb1
								{
									OFFSET 7.235672 -3.848206 5.434273
									CHANNELS 3 Xrotation Yrotation Zrotation
									JOINT mixamorig:LeftHandThumb2
									{
										OFFSET 6.568451 -3.792297 3.792300
										CHANNELS 3 Xrotation Yrotation Zrotation
										JOINT mixamorig:LeftHandThumb3
										{
											OFFSET 6.063080 -3.500519 3.500518
											CHANNELS 3 Xrotation Yrotation Zrotation
											JOINT mixamorig:LeftHandThumb4
											{
												OFFSET 4.793182 -2.767334 2.767349
												CHANNELS 3 Xrotation Yrotation Zrotation
												End Site
												{
													OFFSET 0.101639 6.054260 1.275483
												}
											}
										}
									}
								}
								JOINT mixamorig:LeftHandIndex1
								{
									OFFSET 23.101074 -0.309540 4.992809
									CHANNELS 3 Xrotation Yrotation Zrotation
									JOINT mixamorig:LeftHandIndex2
									{
										OFFSET 6.226883 0.000000 0.000000
										CHANNELS 3 Xrotation Yrotation Zrotation
										JOINT mixamorig:LeftHandIndex3
										{
											OFFSET 6.094330 0.000000 0.000000
											CHANNELS 3 Xrotation Yrotation Zrotation
											JOINT mixamorig:LeftHandIndex4
											{
												OFFSET 5.482605 0.000000 0.000000
												CHANNELS 3 Xrotation Yrotation Zrotation
												End Site
												{
													OFFSET -1.427902 5.233032 0.797164
												}
											}
										}
									}
								}
								JOINT mixamorig:LeftHandRing1
								{
									OFFSET 22.299240 0.021149 -3.964172
									CHANNELS 3 Xrotation Yrotation Zrotation
									JOINT mixamorig:LeftHandRing2
									{
										OFFSET 6.321869 0.000000 0.000000
										CHANNELS 3 Xrotation Yrotation Zrotation
										JOINT mixamorig:LeftHandRing3
										{
											OFFSET 5.899796 0.000000 0.000000
											CHANNELS 3 Xrotation Yrotation Zrotation
											JOINT mixamorig:LeftHandRing4
											{
												OFFSET 6.517899 0.000000 0.000000
												CHANNELS 3 Xrotation Yrotation Zrotation
												End Site
												{
													OFFSET -1.637299 6.232208 0.980890
												}
											}
										}
									}
								}
								JOINT mixamorig:LeftHandPinky1
								{
									OFFSET 20.463791 -0.302338 -8.562233
									CHANNELS 3 Xrotation Yrotation Zrotation
									JOINT mixamorig:LeftHandPinky2
									{
										OFFSET 6.908646 0.000000 0.000000
										CHANNELS 3 Xrotation Yrotation Zrotation
										JOINT mixamorig:LeftHandPinky3
										{
											OFFSET 4.622849 0.000000 0.000000
											CHANNELS 3 Xrotation Yrotation Zrotation
											JOINT mixamorig:LeftHandPinky4
											{
												OFFSET 5.216080 0.000000 0.000000
												CHANNELS 3 Xrotation Yrotation Zrotation
												End Site
												{
													OFFSET -0.606308 5.116241 0.814926
												}
											}
										}
									}
								}
							}
						}
					}
				}
				JOINT mixamorig:RightShoulder
				{
					OFFSET -12.001300 18.284088 1.348900
					CHANNELS 3 Xrotation Yrotation Zrotation
					JOINT mixamorig:RightArm
					{
						OFFSET -25.308500 -0.751312 -5.164599
						CHANNELS 3 Xrotation Yrotation Zrotation
						JOINT mixamorig:RightForeArm
						{
							OFFSET -54.684429 0.000000 0.000000
							CHANNELS 3 Xrotation Yrotation Zrotation
							JOINT mixamorig:RightHand
							{
								OFFSET -55.150291 0.000000 0.000000
								CHANNELS 3 Xrotation Yrotation Zrotation
								JOINT mixamorig:RightHandMiddle1
								{
									OFFSET -23.317566 0.000000 0.000000
									CHANNELS 3 Xrotation Yrotation Zrotation
									JOINT mixamorig:RightHandMiddle2
									{
										OFFSET -6.378403 0.000000 0.000000
										CHANNELS 3 Xrotation Yrotation Zrotation
										JOINT mixamorig:RightHandMiddle3
										{
											OFFSET -6.148193 0.000000 0.000000
											CHANNELS 3 Xrotation Yrotation Zrotation
											JOINT mixamorig:RightHandMiddle4
											{
												OFFSET -6.583389 0.000000 0.000000
												CHANNELS 3 Xrotation Yrotation Zrotation
												End Site
												{
													OFFSET 1.171692 6.395905 1.029786
												}
											}
										}
									}
								}
								JOINT mixamorig:RightHandThumb1
								{
									OFFSET -7.190521 -3.860474 5.435846
									CHANNELS 3 Xrotation Yrotation Zrotation
									JOINT mixamorig:RightHandThumb2
									{
										OFFSET -6.567429 -3.791718 3.791708
										CHANNELS 3 Xrotation Yrotation Zrotation
										JOINT mixamorig:RightHandThumb3
										{
											OFFSET -6.062469 -3.500153 3.500166
											CHANNELS 3 Xrotation Yrotation Zrotation
											JOINT mixamorig:RightHandThumb4
											{
												OFFSET -4.792618 -2.767029 2.767022
												CHANNELS 3 Xrotation Yrotation Zrotation
												End Site
												{
													OFFSET -0.100327 6.053253 1.276754
												}
											}
										}
									}
								}
								JOINT mixamorig:RightHandIndex1
								{
									OFFSET -23.048981 -0.310791 4.992554
									CHANNELS 3 Xrotation Yrotation Zrotation
									JOINT mixamorig:RightHandIndex2
									{
										OFFSET -6.227539 0.000000 0.000000
										CHANNELS 3 Xrotation Yrotation Zrotation
										JOINT mixamorig:RightHandIndex3
										{
											OFFSET -6.095047 0.000000 0.000000
											CHANNELS 3 Xrotation Yrotation Zrotation
											JOINT mixamorig:RightHandIndex4
											{
												OFFSET -5.484772 0.000000 0.000000
												CHANNELS 3 Xrotation Yrotation Zrotation
												End Site
												{
													OFFSET 1.420593 5.237305 0.797056
												}
											}
										}
									}
								}
								JOINT mixamorig:RightHandRing1
								{
									OFFSET -22.246323 0.020569 -3.963762
									CHANNELS 3 Xrotation Yrotation Zrotation
									JOINT mixamorig:RightHandRing2
									{
										OFFSET -6.322128 0.000000 0.000000
										CHANNELS 3 Xrotation Yrotation Zrotation
										JOINT mixamorig:RightHandRing3
										{
											OFFSET -5.900024 0.000000 0.000000
											CHANNELS 3 Xrotation Yrotation Zrotation
											JOINT mixamorig:RightHandRing4
											{
												OFFSET -6.518356 0.000000 0.000000
												CHANNELS 3 Xrotation Yrotation Zrotation
												End Site
												{
													OFFSET 1.636398 6.232697 0.982186
												}
											}
										}
									}
								}
								JOINT mixamorig:RightHandPinky1
								{
									OFFSET -20.411011 -0.303314 -8.561701
									CHANNELS 3 Xrotation Yrotation Zrotation
									JOINT mixamorig:RightHandPinky2
									{
										OFFSET -6.907349 0.000000 0.000000
										CHANNELS 3 Xrotation Yrotation Zrotation
										JOINT mixamorig:RightHandPinky3
										{
											OFFSET -4.623840 0.000000 0.000000
											CHANNELS 3 Xrotation Yrotation Zrotation
											JOINT mixamorig:RightHandPinky4
											{
												OFFSET -5.218353 0.000000 0.000000
												CHANNELS 3 Xrotation Yrotation Zrotation
												End Site
												{
													OFFSET 0.602097 5.118835 0.816273
												}
											}
										}
									}
								}
							}
						}
					}
				}
			}
		}
	}
	JOINT mixamorig:LeftUpLeg
	{
		OFFSET 18.168400 -13.561905 -0.039000
		CHANNELS 3 Xrotation Yrotation Zrotation
		JOINT mixamorig:LeftLeg
		{
			OFFSET 0.577358 -80.825211 -3.695000
			CHANNELS 3 Xrotation Yrotation Zrotation
			JOINT mixamorig:LeftFoot
			{
				OFFSET -0.577356 -83.370262 -6.520700
				CHANNELS 3 Xrotation Yrotation Zrotation
				JOINT mixamorig:LeftToeBase
				{
					OFFSET 0.750401 -20.798306 25.135401
					CHANNELS 3 Xrotation Yrotation Zrotation
					JOINT mixamorig:LeftToe_End
					{
						OFFSET -0.000500 0.001200 19.917799
						CHANNELS 3 Xrotation Yrotation Zrotation
						End Site
						{
							OFFSET 0.000000 19.917805 0.000000
						}
					}
				}
			}
		}
	}
	JOINT mixamorig:RightUpLeg
	{
		OFFSET -18.162500 -13.585098 -0.041000
		CHANNELS 3 Xrotation Yrotation Zrotation
		JOINT mixamorig:RightLeg
		{
			OFFSET -0.595024 -80.945297 -3.631900
			CHANNELS 3 Xrotation Yrotation Zrotation
			JOINT mixamorig:RightFoot
			{
				OFFSET 0.595024 -83.218193 -6.561200
				CHANNELS 3 Xrotation Yrotation Zrotation
				JOINT mixamorig:RightToeBase
				{
					OFFSET -0.753601 -20.807106 25.115000
					CHANNELS 3 Xrotation Yrotation Zrotation
					JOINT mixamorig:RightToe_End
					{
						OFFSET 0.000299 0.001700 19.918200
						CHANNELS 3 Xrotation Yrotation Zrotation
						End Site
						{
							OFFSET 0.000000 19.918203 0.000000
						}
					}
				}
			}
		}
	}
}
MOTION
Frames: 6
Frame Time: 0.033333
0.018015 187.220139 2.099224 17.429463 -3.280049 0.063640 14.913749 -1.554592 0.406745 5.346277 -0.845701 -1.559633 5.141037 -0.428917 -0.173900 -8.304042 0.965533 1.844257 -26.440149 5.059197 0.652089 0.000000 -0.000000 0.000000 0.000000 -0.000000 0.000000 0.000000 -0.000000 0.000000 -18.185046 -16.684733 -4.143145 -14.299584 5.321653 -58.617298 0.000018 -50.169655 0.000015 13.748602 -26.697307 34.897014 0.494825 4.564837 -22.398033 0.931138 3.170816 -32.723655 0.559420 2.500196 -25.219767 -0.000000 -0.000001 0.000002 11.187888 5.997087 -10.405219 5.363088 8.352000 0.904224 -5.734092 10.813579 15.939368 0.000000 -0.000005 0.000000 0.153516 -1.751679 -23.178199 0.809106 2.972624 -30.446531 0.886317 3.100018 -31.903872 -0.000004 -0.000002 0.000001 0.700947 5.019823 -28.509049 0.453628 2.262252 -22.674512 1.672862 4.099664 -44.381319 -0.000000 0.000001 -0.000001 0.465096 8.292829 -13.856692 0.624486 2.633854 -26.672978 2.026727 4.431548 -49.135940 -0.000001 0.000000 0.000001 -23.769980 22.742590 4.874675 -5.448438 5.986790 54.374975 0.000007 52.736020 -0.000028 3.172468 25.718661 -41.552709 0.187456 -3.413292 14.033684 0.448852 -1.996600 25.337241 0.480586 -2.062276 26.233701 -0.000002 0.000001 -0.000003 -1.237014 9.918022 5.832132 6.896102 -18.922465 -2.478612 -4.452445 -14.082268 -16.510188 -0.000002 -0.000001 -0.000000 0.710410 3.726561 13.785601 0.253614 -1.517365 18.976134 0.289147 -1.617021 20.275714 0.000001 -0.000000 -0.000006 2.581783 -11.039340 17.202964 1.378465 -3.309278 45.218656 0.423386 -1.941922 24.596251 0.000000 0.000003 0.000005 2.630090 -23.282667 23.282126 0.574909 -2.243407 28.743847 1.002138 -2.888115 38.265384 0.000001 0.000002 0.000002 -42.954510 1.259184 18.509681 32.898672 -2.025303 2.878101 -7.305511 -5.731079 -17.546566 -5.308802 0.000001 -0.000003 -0.000000 -0.000000 -0.000000 -43.290904 -2.206390 -10.959972 35.046961 -4.557718 -8.543575 -6.829990 -0.644975 18.942775 -3.267373 0.000004 0.000001 -0.000000 -0.000000 -0.000000 
2.700378 185.458542 4.282314 19.111353 -2.554960 0.151023 15.126827 -2.769760 0.328972 4.837261 -1.107666 -1.206941 4.681337 -0.778689 -0.098336 -7.036115 1.239824 1.589238 -30.489281 8.573629 1.906732 0.000000 -0.000000 -0.000000 0.000000 -0.000000 -0.000000 0.000000 -0.000000 -0.000000 -14.475370 -14.148189 -5.866703 -11.358786 1.973707 -55.199263 0.000011 -46.616393 0.000010 9.149455 -27.131344 30.982442 0.371884 4.234509 -18.949825 0.614928 2.614732 -26.464162 0.372864 2.058442 -20.532290 -0.000000 0.000002 -0.000001 7.911241 3.708892 -7.183502 5.473780 9.115078 0.986099 -6.041231 8.329350 15.346317 0.000000 -0.000000 -0.000001 0.341293 -1.127322 -18.886163 0.539069 2.456618 -24.749658 0.589520 2.563111 -25.901614 -0.000000 -0.000002 0.000001 0.673908 4.970018 -24.350879 0.355026 2.010167 -20.029303 1.136468 3.469075 -36.267891 -0.000000 -0.000000 0.000002 -0.663306 8.922610 -13.142680 0.484866 2.335549 -23.453227 1.430476 3.836995 -40.879850 0.000000 0.000000 0.000003 -18.739623 19.627587 5.105632 -2.849288 6.799390 51.335948 -0.000006 50.234283 0.000016 4.234765 24.475317 -34.521811 0.077706 -2.910519 11.964748 0.292040 -1.624766 20.377326 0.312473 -1.678750 21.086203 0.000002 0.000005 -0.000003 -2.436057 9.458105 3.815902 6.785167 -17.987571 -2.404892 -4.652196 -12.289427 -16.144795 0.000001 -0.000002 0.000000 0.657395 3.081181 10.886456 0.169122 -1.244898 15.471780 0.192178 -1.325369 16.499667 0.000006 -0.000000 -0.000003 1.818101 -9.395981 15.012628 0.925129 -2.787837 36.710044 0.292825 -1.626923 20.405656 0.000001 -0.000001 0.000003 1.016679 -19.694219 20.530562 0.419113 -1.932603 24.469933 0.708835 -2.471733 31.998705 -0.000002 -0.000001 0.000001 -47.436248 -0.509167 14.299849 42.454882 -2.697561 3.193137 -12.877573 -3.950985 -14.557252 -4.700864 -0.000000 0.000003 -0.000000 0.000000 0.000000 -45.141311 -1.167934 -12.199561 37.064233 -5.325105 -8.535424 -8.244124 -1.032155 20.487472 -3.267379 -0.000008 0.000005 0.000000 0.000001 0.000000 
5.936613 184.369278 7.092400 20.695442 -1.636112 0.544679 15.283341 -4.082323 0.190504 4.200684 -1.378178 -0.835123 4.098528 -1.147263 -0.042295 -5.417482 1.533873 1.199461 -33.963966 12.294453 2.648167 -0.000000 0.000000 -0.000000 -0.000000 0.000000 -0.000000 -0.000000 0.000000 -0.000000 -10.152132 -11.926014 -8.340408 -6.822408 -1.056932 -51.509766 0.000003 -43.076138 -0.000011 2.505175 -27.433791 27.027204 0.255389 3.845977 -14.983507 0.329429 1.938538 -19.286320 0.203989 1.534034 -15.148981 -0.000000 0.000005 -0.000002 4.112941 0.873689 -3.813532 5.600138 9.993777 1.078747 -6.421485 5.497222 14.656672 -0.000001 -0.000001 -0.000003 0.427225 -0.354655 -13.961656 0.293978 1.834270 -18.210432 0.320268 1.912196 -19.013773 0.000000 -0.000004 0.000002 0.604653 4.889737 -19.532427 0.253629 1.706741 -16.904062 0.636791 2.658120 -26.939012 -0.000000 -0.000001 0.000002 -1.872160 9.482335 -12.222003 0.341922 1.973900 -19.652736 0.856330 3.051421 -31.345125 -0.000001 0.000001 -0.000000 -12.878877 16.669543 5.330317 1.186392 7.095075 48.974150 0.000021 47.380227 -0.000020 5.555307 23.492991 -26.042888 -0.007771 -2.340336 9.575589 0.152378 -1.182770 14.681488 0.162770 -1.221686 15.176129 -0.000003 0.000001 0.000002 -3.798994 8.994359 1.481565 6.657473 -16.918319 -2.318697 -4.893428 -10.240171 -15.721787 -0.000003 -0.000000 0.000001 0.549906 2.307454 7.570089 0.092807 -0.926047 11.444732 0.104745 -0.983213 12.162047 -0.000002 0.000003 -0.000002 1.094916 -7.459185 12.480253 0.505779 -2.112572 26.924993 0.170869 -1.251179 15.551873 -0.000001 -0.000000 -0.000003 -0.059656 -15.375649 17.411672 0.267138 -1.556163 19.480584 0.428026 -1.952048 24.732815 0.000001 0.000001 0.000000 -50.213877 -1.515641 8.322241 49.345938 -2.234807 3.722448 -17.251243 -2.351245 -10.815358 -4.116255 -0.000002 0.000000 -0.000000 -0.000001 -0.000000 -45.759733 -0.188846 -14.001654 37.411600 -6.024783 -8.524413 -9.051940 -1.361657 22.216041 -3.267374 -0.000009 -0.000003 0.000000 0.000000 0.000000 
9.479207 184.532242 10.421181 21.799580 -0.448834 1.010919 15.648949 -5.328795 0.107278 3.597547 -1.627567 -0.497900 3.544907 -1.490398 -0.013834 -3.736175 1.773315 0.838410 -36.674510 15.589570 2.985012 -0.000000 0.000001 -0.000000 -0.000000 0.000001 -0.000000 -0.000000 0.000001 -0.000000 -5.785491 -10.447222 -10.670878 -1.140917 -3.524220 -48.225801 0.000009 -39.717728 0.000006 -4.325843 -28.442777 22.800898 0.169064 3.465588 -11.171314 0.135777 1.255263 -12.346614 0.088391 1.014982 -9.955522 0.000005 0.000002 -0.000003 0.382750 -2.099506 -0.931258 5.720607 10.838690 1.166228 -6.825440 2.729382 13.965699 -0.000002 -0.000002 -0.000002 0.355666 0.381408 -9.130060 0.126161 1.210498 -11.899587 0.136156 1.256994 -12.363844 0.000001 0.000001 -0.000002 0.523064 4.844079 -14.928939 0.175299 1.423773 -14.036544 0.285842 1.809293 -17.953835 0.000001 0.000002 0.000003 -3.070424 10.128685 -11.418745 0.231542 1.632325 -16.146103 0.436329 2.220429 -22.232115 -0.000002 0.000001 0.000001 -7.112665 13.693903 5.655481 6.069544 7.243037 47.592809 -0.000006 45.085836 -0.000018 7.450994 22.990369 -17.863212 -0.056837 -1.750901 7.274554 0.059432 -0.742502 9.153994 0.063200 -0.765482 9.439933 0.000000 -0.000001 -0.000002 -5.116796 8.607079 -0.821122 6.532024 -15.876128 -2.232744 -5.141948 -8.244275 -15.303421 0.000000 -0.000000 -0.000003 0.383693 1.620831 4.265254 0.040580 -0.614092 7.560575 0.045138 -0.647561 7.975283 -0.000002 0.000002 -0.000002 0.559171 -5.532107 10.115999 0.215144 -1.400560 17.465316 0.084088 -0.881890 10.892218 0.000001 -0.000001 -0.000000 -0.306852 -11.153176 14.551750 0.153869 -1.188488 14.753910 0.223137 -1.425708 17.789667 0.000000 0.000001 0.000001 -50.784878 -1.916675 2.093132 52.503370 -1.939477 4.037783 -19.236166 -0.941240 -7.996937 -3.389709 -0.000005 -0.000002 0.000000 0.000000 -0.000000 -45.034507 0.253643 -16.170982 36.083753 -6.844563 -8.514044 -7.719130 -1.564697 23.916076 -4.450638 0.000000 0.000000 -0.000000 0.000000 0.000000 
13.190027 185.761871 14.326511 22.055072 0.322799 1.088982 16.154067 -5.958385 0.342498 3.146922 -1.731825 -0.192381 3.130877 -1.670361 0.036129 -2.057208 1.955991 0.421784 -38.097825 18.180524 3.226005 -0.000000 -0.000001 -0.000000 -0.000000 -0.000001 -0.000000 -0.000000 -0.000001 -0.000000 -2.162441 -9.682173 -13.155149 4.435561 -4.528143 -45.162232 -0.000002 -36.738392 0.000003 -8.478730 -28.436786 19.042014 0.119230 3.163837 -8.184008 0.041275 0.694961 -6.797990 0.030429 0.597029 -5.836150 0.000001 0.000001 -0.000001 -2.662739 -4.678960 1.051129 5.814219 11.500256 1.233560 -7.185712 0.435346 13.378017 0.000002 0.000002 -0.000001 0.181189 0.905524 -5.126528 0.042336 0.703854 -6.885304 0.044668 0.722842 -7.072025 0.000000 0.000001 0.000002 0.460930 4.900656 -11.415409 0.131812 1.236981 -12.163807 0.105204 1.106411 -10.863083 0.000001 -0.000001 -0.000000 -4.186048 11.046197 -11.047600 0.169634 1.400918 -13.806628 0.206190 1.542137 -15.231038 0.000002 -0.000001 -0.000001 -2.422559 11.855397 6.484912 10.803206 6.553742 46.879803 0.000001 43.247740 -0.000001 9.524783 23.474983 -11.466454 -0.076056 -1.192475 5.468952 0.015685 -0.382280 4.697975 0.016455 -0.391613 4.812994 0.000001 -0.000000 -0.000001 -6.187008 8.337877 -2.726587 6.428499 -15.022357 -2.160889 -5.355651 -6.610273 -14.955563 -0.000002 -0.000001 -0.000006 0.212366 1.223058 1.412479 0.014291 -0.364936 4.484485 0.015377 -0.378491 4.651324 0.000001 0.000000 0.000001 0.244285 -3.946357 8.407679 0.069880 -0.804584 9.927014 0.037654 -0.591685 7.282954 0.000001 -0.000001 -0.000000 0.094077 -7.864529 12.553495 0.089948 -0.911843 11.266865 0.110413 -1.009164 12.488039 0.000001 0.000000 0.000001 -49.147186 -1.652495 -2.438999 52.826220 -2.429313 3.956225 -19.540292 0.120253 -5.543449 -3.871902 -0.025668 1.464900 0.000000 0.000000 0.000000 -43.223694 -0.490458 -17.171111 33.812308 -7.744138 -8.337354 -5.868087 -5.940813 21.366088 -3.848634 -0.000003 0.000000 -0.000000 0.000001 -0.000000 
17.457153 188.072998 18.576645 22.460719 0.685229 0.485595 16.101459 -6.328137 1.441006 2.745562 -1.838861 0.141365 2.747264 -1.821656 0.217624 -0.779126 2.135830 -0.065938 -37.541841 20.596302 2.708843 0.000000 -0.000002 0.000000 0.000000 -0.000002 0.000000 0.000000 -0.000002 0.000000 0.004614 -8.600479 -15.636502 9.936639 -4.598460 -42.446351 -0.000012 -34.822671 0.000003 -11.858898 -28.209057 18.110651 0.100253 3.012201 -6.691612 0.012867 0.388402 -3.793001 0.012075 0.376315 -3.674909 0.000003 -0.000001 0.000001 -4.371592 -6.279805 1.896542 5.860514 11.828908 1.266690 -7.419708 -0.977971 13.008214 0.000002 0.000000 -0.000002 0.031485 1.073020 -2.695779 0.016045 0.433601 -4.235306 0.016201 0.435974 -4.258210 0.000000 0.000000 -0.000001 0.461179 5.130382 -9.867239 0.128766 1.222836 -12.022690 0.046500 0.737477 -7.215995 0.000000 -0.000000 0.000001 -5.148732 12.439657 -11.418779 0.162383 1.371137 -13.507342 0.128910 1.223496 -12.029248 0.000000 -0.000000 0.000000 0.411921 11.214075 6.417376 14.612770 5.793910 47.035360 -0.000004 42.225718 -0.000009 10.457361 24.124874 -7.114607 -0.089370 -0.715224 4.565750 0.003487 -0.180514 2.216533 0.003548 -0.181669 2.230648 0.000002 -0.000001 -0.000002 -6.814426 8.199346 -3.859386 6.367050 -14.518235 -2.117841 -5.486242 -5.645930 -14.747744 0.000003 -0.000001 -0.000003 0.122429 1.300557 -0.538113 0.005904 -0.234640 2.881593 0.005995 -0.236305 2.902083 -0.000001 -0.000001 -0.000001 0.108280 -3.038741 7.834594 0.024755 -0.480188 5.905002 0.022127 -0.453857 5.580337 0.000003 -0.000001 0.000002 0.654927 -6.242626 12.111857 0.070848 -0.810134 9.996152 0.072993 -0.822156 10.146111 -0.000003 0.000000 0.000001 -46.469124 -1.424786 -5.073708 50.362215 -3.109591 4.112853 -18.450598 0.710050 -4.095364 -4.650400 -0.082347 2.609544 -0.000000 -0.000000 0.000000 -42.295274 -0.896937 -17.531082 31.085683 -10.540452 -9.180803 2.773002 -7.036482 20.944550 -10.263876 0.000000 -0.000002 -0.000000 0.000000 -0.000001 
